<?xml version="1.0" encoding="utf-8"?>
<!-- Generator: Adobe Illustrator 16.0.0, SVG Export Plug-In . SVG Version: 6.00 Build 0)  -->
<!DOCTYPE svg PUBLIC "-//W3C//DTD SVG 1.1//EN" "http://www.w3.org/Graphics/SVG/1.1/DTD/svg11.dtd">
<svg version="1.1" xmlns="http://www.w3.org/2000/svg" xmlns:xlink="http://www.w3.org/1999/xlink" x="0px" y="0px"
	 width="667.205px" height="164.035px" viewBox="0 0 667.205 164.035" enable-background="new 0 0 667.205 164.035"
	 xml:space="preserve">
<g id="Guias_01" display="none">
</g>
<g id="Guias_02" display="none">
</g>
<g id="Capa_13" display="none">
</g>
<g id="Marco_Respeto" display="none">
	<rect x="638.002" y="-156.978" display="inline" fill="#FFFFFF" width="698.53" height="174.632"/>
</g>
<g id="Pantone_187_C">
	<g id="Giro">
	</g>
</g>
<g id="Pantone_Process_Black_C">
	<g id="Linea_Divisora">
	</g>
	<g id="Logotipo">
	</g>
	<g id="icoEdder">
	</g>
	<g>
		<g>
			<path fill="#1E1D1D" d="M583.865,16.58c-36.083,0-65.438,29.355-65.438,65.438s29.355,65.438,65.438,65.438
				s65.438-29.355,65.438-65.438S619.948,16.58,583.865,16.58z M583.865,20.58c33.877,0,61.438,27.561,61.438,61.438
				c0,15.061-5.457,28.865-14.484,39.563h-12.953v-3h-10v-5l23-22.125V67.58h-8.841c0,0-1.195-17.088-2.575-22.393
				c-1.304-5.011-8.584-15.26-35.846-15.26c-23.739,0-30.717,9.367-32.39,14.461c-1.795,5.464-2.61,23.191-2.61,23.191h-11.739
				v23.875l23,22.125v5h-10v3h-12.953c-9.028-10.697-14.484-24.502-14.484-39.563C522.428,48.141,549.988,20.58,583.865,20.58z
				 M556.736,49.979l27.129,4.503l28.522-5.143l-4.986,14.115l6.463,4.75v30.004l-27.608,24.082l0.064-10.711H581.5l-0.064,10.582
				L553.865,98.24V68.199l6.507-4.744L556.736,49.979z M566.865,128.58v-9l10.25,9h13.5l10.25-9v8.986l-16.748,8.119l-17.365-8.105
				H566.865z M620.865,91.455V74.58h4v13.504L620.865,91.455z M546.865,74.58v16.875l-4-3.375v-13.5H546.865z"/>
			<polygon fill="#1E1D1D" points="610.865,84.705 610.865,74.58 590.615,74.58 588.928,81.58 607.49,81.58 			"/>
			<polygon fill="#1E1D1D" points="578.803,81.58 577.115,74.58 556.865,74.58 556.865,84.705 560.24,81.58 			"/>
			<rect x="573.865" y="104.58" fill="#1E1D1D" width="20" height="4"/>
			<polygon fill="#1E1D1D" points="590.865,91.455 593.865,88.102 593.865,88.58 607.865,88.58 607.865,84.58 590.865,84.58 			"/>
			<rect x="578.865" y="98.58" fill="#1E1D1D" width="10" height="3"/>
			<polygon fill="#1E1D1D" points="573.865,88.102 576.865,91.455 576.865,84.58 559.865,84.58 559.865,88.58 573.865,88.58 			"/>
		</g>
		<path fill="#1E1D1D" d="M166.833,48.83h-28.337l20.9,9.475c30.335,0,39.208,10.311,39.208,23.688
			c0,13.398-8.873,23.723-39.208,23.723h-20.9v-26.23h-17.518v35.721h45.854c34.054,0,48.771-14.885,48.771-33.213
			C215.605,63.692,200.887,48.83,166.833,48.83z"/>
		<path fill="#1E1D1D" d="M268.204,48.83h-28.337l20.9,9.475c30.335,0,39.208,10.311,39.208,23.688
			c0,13.398-8.873,23.723-39.208,23.723h-20.9v-26.23H222.35v35.721h45.854c34.054,0,48.771-14.885,48.771-33.213
			C316.976,63.692,302.258,48.83,268.204,48.83z"/>
		<path fill="#1E1D1D" d="M489.657,84.383h0.014h17.005c0.057-0.791,0.096-1.586,0.096-2.391c0-18.3-14.718-33.162-48.771-33.162
			h-28.337l20.9,9.475c28.41,0,37.994,9.043,39.097,21.18h-64.115v35.721h17.518V84.383l10.494,4.576
			c30.335,0,39.208,5.131,39.208,23.686c0,0.809-0.034,1.607-0.102,2.391h17.005c0.057-0.789,0.096-1.586,0.096-2.391
			C509.765,100.699,503.487,90.221,489.657,84.383z"/>
		<path fill="#1E1D1D" d="M112.528,89.023l0.001-7.256C112.308,63.658,97.553,48.83,63.756,48.83H35.419l20.9,9.475
			c28.41,0,37.994,9.043,39.097,21.18H17.998c-0.057,0.791-0.096,1.586-0.096,2.391c0,18.299,14.718,33.16,48.771,33.16H95.01
			l-20.9-9.473c-28.41,0-37.994-9.045-39.097-21.18l10.548,4.641H112.528z"/>
		<path fill="#1E1D1D" d="M418.032,89.023l0.001-7.256c-0.221-18.109-14.976-32.938-48.772-32.938h-28.337l20.9,9.475
			c28.41,0,37.994,9.043,39.097,21.18h-77.418c-0.057,0.791-0.096,1.586-0.096,2.391c0,18.299,14.718,33.16,48.771,33.16h28.337
			l-20.9-9.473c-28.41,0-37.994-9.045-39.097-21.18l10.548,4.641H418.032z"/>
	</g>
</g>
<g id="Capa_15" display="none">
</g>
<g id="Reticula" display="none">
	<path display="inline" fill="#9D9C9B" d="M1311.835-157.228h-0.5h-24.447h-0.5h-24.447h-0.5h-24.447h-0.5h-24.447h-0.5h-24.447
		h-0.5h-24.447h-0.5h-24.447h-0.5h-24.447h-0.5h-24.447h-0.5h-24.447h-0.5h-24.447h-0.5h-24.447h-0.5h-24.447h-0.5h-24.448h-0.5
		h-24.448h-0.5h-24.448h-0.5h-24.448h-0.5h-24.448h-0.5h-24.448h-0.5h-24.448h-0.5h-24.448h-0.5h-24.448h-0.5h-24.448h-0.5h-24.448
		h-0.5h-24.448h-0.5H663.2h-0.5h-24.948v24.948v0.5v24.448v0.5v24.448v0.5v24.447v0.5v24.447v0.5v24.447v0.5v24.947H662.7h0.5
		h24.448h0.5h24.448h0.5h24.448h0.5h24.448h0.5h24.448h0.5h24.448h0.5h24.448h0.5h24.448h0.5h24.448h0.5h24.448h0.5h24.448h0.5
		h24.448h0.5h24.448h0.5h24.447h0.5h24.447h0.5h24.447h0.5h24.447h0.5h24.447h0.5h24.447h0.5h24.447h0.5h24.447h0.5h24.447h0.5
		h24.447h0.5h24.447h0.5h24.447h0.5h24.447h0.5h24.947V-7.043v-0.5V-31.99v-0.5v-24.447v-0.5v-24.447v-0.5v-24.448v-0.5v-24.448
		v-0.5v-24.948H1311.835z M1311.835-156.728h24.447v24.447h-24.447V-156.728z M1311.835-131.78h24.447v24.447h-24.447V-131.78z
		 M1311.335-57.438h-24.447v-24.447h24.447V-57.438z M1311.335-32.49h-24.447v-24.447h24.447V-32.49z M1311.335-7.543h-24.447
		V-31.99h24.447V-7.543z M1286.388-57.438h-24.447v-24.447h24.447V-57.438z M1286.388-32.49h-24.447v-24.447h24.447V-32.49z
		 M663.2-107.333v-24.447h24.447v24.447H663.2z M688.148-107.333v-24.447h24.447v24.447H688.148z M713.096-107.333v-24.447h24.447
		v24.447H713.096z M738.043-107.333v-24.447h24.447v24.447H738.043z M762.991-107.333v-24.447h24.447v24.447H762.991z
		 M787.939-107.333v-24.447h24.447v24.447H787.939z M812.887-107.333v-24.447h24.447v24.447H812.887z M837.834-107.333v-24.447
		h24.447v24.447H837.834z M862.782-107.333v-24.447h24.447v24.447H862.782z M887.73-107.333v-24.447h24.447v24.447H887.73z
		 M912.678-107.333v-24.447h24.447v24.447H912.678z M1286.388-107.333h-24.447v-24.447h24.447V-107.333z M1261.44-57.438h-24.447
		v-24.447h24.447V-57.438z M712.595-82.385h-24.447v-24.447h24.447V-82.385z M737.543-82.385h-24.447v-24.447h24.447V-82.385z
		 M762.491-82.385h-24.447v-24.447h24.447V-82.385z M787.438-82.385h-24.447v-24.447h24.447V-82.385z M812.386-82.385h-24.447
		v-24.447h24.447V-82.385z M837.334-82.385h-24.447v-24.447h24.447V-82.385z M862.282-82.385h-24.447v-24.447h24.447V-82.385z
		 M887.229-82.385h-24.447v-24.447h24.447V-82.385z M912.177-82.385H887.73v-24.447h24.447V-82.385z M937.125-82.385h-24.447
		v-24.447h24.447V-82.385z M962.073-82.385h-24.447v-24.447h24.447V-82.385z M987.021-82.385h-24.448v-24.447h24.448V-82.385z
		 M1011.968-82.385h-24.447v-24.447h24.447V-82.385z M1036.915-82.385h-24.447v-24.447h24.447V-82.385z M1061.862-82.385h-24.447
		v-24.447h24.447V-82.385z M1086.81-82.385h-24.447v-24.447h24.447V-82.385z M1111.757-82.385h-24.447v-24.447h24.447V-82.385z
		 M1136.704-82.385h-24.447v-24.447h24.447V-82.385z M1161.651-82.385h-24.447v-24.447h24.447V-82.385z M1186.599-82.385h-24.447
		v-24.447h24.447V-82.385z M1211.546-82.385h-24.447v-24.447h24.447V-82.385z M1236.493-82.385h-24.447v-24.447h24.447V-82.385z
		 M688.148-81.885h24.447v24.447h-24.447V-81.885z M713.096-81.885h24.447v24.447h-24.447V-81.885z M738.043-81.885h24.447v24.447
		h-24.447V-81.885z M762.991-81.885h24.447v24.447h-24.447V-81.885z M787.939-81.885h24.447v24.447h-24.447V-81.885z
		 M812.887-81.885h24.447v24.447h-24.447V-81.885z M837.834-81.885h24.447v24.447h-24.447V-81.885z M862.782-81.885h24.447v24.447
		h-24.447V-81.885z M887.73-81.885h24.447v24.447H887.73V-81.885z M912.678-81.885h24.447v24.447h-24.447V-81.885z M937.625-81.885
		h24.447v24.447h-24.447V-81.885z M962.573-81.885h24.448v24.447h-24.448V-81.885z M987.521-81.885h24.447v24.447h-24.447V-81.885z
		 M1012.468-81.885h24.447v24.447h-24.447V-81.885z M1037.415-81.885h24.447v24.447h-24.447V-81.885z M1062.362-81.885h24.447
		v24.447h-24.447V-81.885z M1087.31-81.885h24.447v24.447h-24.447V-81.885z M1112.257-81.885h24.447v24.447h-24.447V-81.885z
		 M1137.204-81.885h24.447v24.447h-24.447V-81.885z M1162.151-81.885h24.447v24.447h-24.447V-81.885z M1187.099-81.885h24.447
		v24.447h-24.447V-81.885z M1212.046-81.885h24.447v24.447h-24.447V-81.885z M1236.993-82.385v-24.447h24.447v24.447H1236.993z
		 M1261.44-107.333h-24.447v-24.447h24.447V-107.333z M1236.493-107.333h-24.447v-24.447h24.447V-107.333z M1211.546-107.333
		h-24.447v-24.447h24.447V-107.333z M1186.599-107.333h-24.447v-24.447h24.447V-107.333z M1161.651-107.333h-24.447v-24.447h24.447
		V-107.333z M1136.704-107.333h-24.447v-24.447h24.447V-107.333z M1111.757-107.333h-24.447v-24.447h24.447V-107.333z
		 M1086.81-107.333h-24.447v-24.447h24.447V-107.333z M1061.862-107.333h-24.447v-24.447h24.447V-107.333z M1036.915-107.333
		h-24.447v-24.447h24.447V-107.333z M1011.968-107.333h-24.447v-24.447h24.447V-107.333z M987.021-107.333h-24.448v-24.447h24.448
		V-107.333z M962.073-107.333h-24.447v-24.447h24.447V-107.333z M663.2-106.832h24.447v24.447H663.2V-106.832z M687.647-81.885
		v24.447H663.2v-24.447H687.647z M663.2-56.938h24.447v24.447H663.2V-56.938z M688.148-56.938h24.447v24.447h-24.447V-56.938z
		 M713.096-56.938h24.447v24.447h-24.447V-56.938z M738.043-56.938h24.447v24.447h-24.447V-56.938z M762.991-56.938h24.447v24.447
		h-24.447V-56.938z M787.939-56.938h24.447v24.447h-24.447V-56.938z M812.887-56.938h24.447v24.447h-24.447V-56.938z
		 M837.834-56.938h24.447v24.447h-24.447V-56.938z M862.782-56.938h24.447v24.447h-24.447V-56.938z M887.73-56.938h24.447v24.447
		H887.73V-56.938z M912.678-56.938h24.447v24.447h-24.447V-56.938z M937.625-56.938h24.447v24.447h-24.447V-56.938z M962.573-56.938
		h24.448v24.447h-24.448V-56.938z M987.521-56.938h24.447v24.447h-24.447V-56.938z M1012.468-56.938h24.447v24.447h-24.447V-56.938z
		 M1037.415-56.938h24.447v24.447h-24.447V-56.938z M1062.362-56.938h24.447v24.447h-24.447V-56.938z M1087.31-56.938h24.447v24.447
		h-24.447V-56.938z M1112.257-56.938h24.447v24.447h-24.447V-56.938z M1137.204-56.938h24.447v24.447h-24.447V-56.938z
		 M1162.151-56.938h24.447v24.447h-24.447V-56.938z M1187.099-56.938h24.447v24.447h-24.447V-56.938z M1212.046-56.938h24.447
		v24.447h-24.447V-56.938z M1236.993-56.938h24.447v24.447h-24.447V-56.938z M1261.94-82.385v-24.447h24.447v24.447H1261.94z
		 M1286.888-131.78h24.447v24.447h-24.447V-131.78z M663.2-31.99h24.447v24.447H663.2V-31.99z M688.148-31.99h24.447v24.447h-24.447
		V-31.99z M713.096-31.99h24.447v24.447h-24.447V-31.99z M738.043-31.99h24.447v24.447h-24.447V-31.99z M762.991-31.99h24.447
		v24.447h-24.447V-31.99z M787.939-31.99h24.447v24.447h-24.447V-31.99z M812.887-31.99h24.447v24.447h-24.447V-31.99z
		 M837.834-31.99h24.447v24.447h-24.447V-31.99z M862.782-31.99h24.447v24.447h-24.447V-31.99z M887.73-31.99h24.447v24.447H887.73
		V-31.99z M912.678-31.99h24.447v24.447h-24.447V-31.99z M937.625-31.99h24.447v24.447h-24.447V-31.99z M962.573-31.99h24.448
		v24.447h-24.448V-31.99z M987.521-31.99h24.447v24.447h-24.447V-31.99z M1012.468-31.99h24.447v24.447h-24.447V-31.99z
		 M1037.415-31.99h24.447v24.447h-24.447V-31.99z M1062.362-31.99h24.447v24.447h-24.447V-31.99z M1087.31-31.99h24.447v24.447
		h-24.447V-31.99z M1112.257-31.99h24.447v24.447h-24.447V-31.99z M1137.204-31.99h24.447v24.447h-24.447V-31.99z M1162.151-31.99
		h24.447v24.447h-24.447V-31.99z M1187.099-31.99h24.447v24.447h-24.447V-31.99z M1212.046-31.99h24.447v24.447h-24.447V-31.99z
		 M1236.993-31.99h24.447v24.447h-24.447V-31.99z M1261.94-31.99h24.447v24.447h-24.447V-31.99z M1286.888-82.385v-24.447h24.447
		v24.447H1286.888z M1286.888-156.728h24.447v24.447h-24.447V-156.728z M1261.94-156.728h24.447v24.447h-24.447V-156.728z
		 M1236.993-156.728h24.447v24.447h-24.447V-156.728z M1212.046-156.728h24.447v24.447h-24.447V-156.728z M1187.099-156.728h24.447
		v24.447h-24.447V-156.728z M1162.151-156.728h24.447v24.447h-24.447V-156.728z M1137.204-156.728h24.447v24.447h-24.447V-156.728z
		 M1112.257-156.728h24.447v24.447h-24.447V-156.728z M1087.31-156.728h24.447v24.447h-24.447V-156.728z M1062.362-156.728h24.447
		v24.447h-24.447V-156.728z M1037.415-156.728h24.447v24.447h-24.447V-156.728z M1012.468-156.728h24.447v24.447h-24.447V-156.728z
		 M987.521-156.728h24.447v24.447h-24.447V-156.728z M962.573-156.728h24.448v24.447h-24.448V-156.728z M937.625-156.728h24.447
		v24.447h-24.447V-156.728z M912.678-156.728h24.447v24.447h-24.447V-156.728z M887.73-156.728h24.447v24.447H887.73V-156.728z
		 M862.782-156.728h24.447v24.447h-24.447V-156.728z M837.834-156.728h24.447v24.447h-24.447V-156.728z M812.887-156.728h24.447
		v24.447h-24.447V-156.728z M787.939-156.728h24.447v24.447h-24.447V-156.728z M762.991-156.728h24.447v24.447h-24.447V-156.728z
		 M738.043-156.728h24.447v24.447h-24.447V-156.728z M713.096-156.728h24.447v24.447h-24.447V-156.728z M688.148-156.728h24.447
		v24.447h-24.447V-156.728z M663.2-156.728h24.447v24.447H663.2V-156.728z M638.252-156.728H662.7v24.447h-24.447V-156.728z
		 M662.7-131.78v24.447h-24.447v-24.447H662.7z M638.252-106.832H662.7v24.447h-24.447V-106.832z M638.252-81.885H662.7v24.447
		h-24.447V-81.885z M638.252-56.938H662.7v24.447h-24.447V-56.938z M638.252-31.99H662.7v24.447h-24.447V-31.99z M662.7,17.404
		h-24.447V-7.043H662.7V17.404z M687.647,17.404H663.2V-7.043h24.447V17.404z M712.595,17.404h-24.447V-7.043h24.447V17.404z
		 M737.543,17.404h-24.447V-7.043h24.447V17.404z M762.491,17.404h-24.447V-7.043h24.447V17.404z M787.438,17.404h-24.447V-7.043
		h24.447V17.404z M812.386,17.404h-24.447V-7.043h24.447V17.404z M837.334,17.404h-24.447V-7.043h24.447V17.404z M862.282,17.404
		h-24.447V-7.043h24.447V17.404z M887.229,17.404h-24.447V-7.043h24.447V17.404z M912.177,17.404H887.73V-7.043h24.447V17.404z
		 M937.125,17.404h-24.447V-7.043h24.447V17.404z M962.073,17.404h-24.447V-7.043h24.447V17.404z M987.021,17.404h-24.448V-7.043
		h24.448V17.404z M1011.968,17.404h-24.447V-7.043h24.447V17.404z M1036.915,17.404h-24.447V-7.043h24.447V17.404z M1061.862,17.404
		h-24.447V-7.043h24.447V17.404z M1086.81,17.404h-24.447V-7.043h24.447V17.404z M1111.757,17.404h-24.447V-7.043h24.447V17.404z
		 M1136.704,17.404h-24.447V-7.043h24.447V17.404z M1161.651,17.404h-24.447V-7.043h24.447V17.404z M1186.599,17.404h-24.447V-7.043
		h24.447V17.404z M1211.546,17.404h-24.447V-7.043h24.447V17.404z M1236.493,17.404h-24.447V-7.043h24.447V17.404z M1261.44,17.404
		h-24.447V-7.043h24.447V17.404z M1286.388,17.404h-24.447V-7.043h24.447V17.404z M1311.335,17.404h-24.447V-7.043h24.447V17.404z
		 M1336.282,17.404h-24.447V-7.043h24.447V17.404z M1336.282-7.543h-24.447V-31.99h24.447V-7.543z M1336.282-32.49h-24.447v-24.447
		h24.447V-32.49z M1336.282-57.438h-24.447v-24.447h24.447V-57.438z M1311.835-82.385v-24.447h24.447v24.447H1311.835z"/>
	<polygon id="Isotipo_2_" display="inline" fill="#1E1D1D" points="536.534,-51.972 542.159,-48.544 544.09,-55.89 533.659,-63.634 
		542.159,-81.442 494.504,-65.925 494.479,-65.925 446.807,-81.442 455.307,-63.634 444.877,-55.89 446.807,-48.544 
		452.432,-51.972 479.594,-42.575 482.018,-31.794 452.432,-45.325 446.807,-42.374 446.807,-7.757 483.387,17.929 490.233,17.929 
		492.497,8.019 496.487,8.019 498.749,17.929 505.594,17.929 542.159,-7.757 542.159,-42.374 536.534,-45.325 506.965,-31.794 
		509.387,-42.575 	"/>
	
		<line display="inline" fill="none" stroke="#1E1D1D" stroke-miterlimit="10" x1="627.871" y1="-156.978" x2="627.871" y2="17.656"/>
	<line display="inline" fill="none" stroke="#1E1D1D" stroke-miterlimit="10" x1="621.624" y1="17.656" x2="634.118" y2="17.656"/>
	<line display="inline" fill="none" stroke="#1E1D1D" stroke-miterlimit="10" x1="638.252" y1="28.463" x2="1336.782" y2="28.463"/>
	<line display="inline" fill="none" stroke="#1E1D1D" stroke-miterlimit="10" x1="638.002" y1="34.711" x2="638.002" y2="22.217"/>
</g>
<g id="Area_Proteccion" display="none">
	
		<rect x="638.252" y="-156.728" display="inline" fill="none" stroke="#868484" stroke-miterlimit="10" width="698.53" height="174.632"/>
	<rect x="642.421" y="39.185" display="inline" fill="none" width="16.111" height="10.898"/>
	<text transform="matrix(1 0 0 1 644.6206 47.7031)" display="inline" font-family="'MyriadPro-Regular'" font-size="12">1x</text>
	<line display="inline" fill="none" stroke="#1E1D1D" stroke-miterlimit="10" x1="638.252" y1="28.463" x2="662.7" y2="28.463"/>
	<line display="inline" fill="none" stroke="#1E1D1D" stroke-miterlimit="10" x1="638.002" y1="34.711" x2="638.002" y2="22.217"/>
	<line display="inline" fill="none" stroke="#1E1D1D" stroke-miterlimit="10" x1="662.7" y1="34.711" x2="662.7" y2="22.217"/>
</g>
<g id="Positivo" display="none">
</g>
<g id="Negativo" display="none">
	<rect x="638.002" y="-156.978" display="inline" fill="#1E1D1D" width="698.53" height="174.632"/>
</g>
</svg>
